<?xml version="1.0" encoding="iso-8859-1"?>
<!-- Generator: Adobe Illustrator 19.0.0, SVG Export Plug-In . SVG Version: 6.00 Build 0)  -->
<svg version="1.1" id="Layer_1" xmlns="http://www.w3.org/2000/svg" xmlns:xlink="http://www.w3.org/1999/xlink" x="0px" y="0px"
	 viewBox="0 0 512 512" style="enable-background:new 0 0 512 512;" xml:space="preserve">
<g>
	<g>
		<path d="M466.811,210.812H154.283l114.691-114.69c17.618-17.619,17.618-46.288,0-63.907c-8.536-8.536-19.883-13.235-31.954-13.235
			c-12.07,0-23.418,4.701-31.953,13.235L13.236,224.047C4.7,232.583,0,243.931,0,256.001s4.7,23.417,13.236,31.953l191.832,191.832
			c8.535,8.536,19.883,13.236,31.953,13.236c12.071,0,23.419-4.7,31.954-13.234c17.618-17.619,17.618-46.288,0-63.907
			l-114.691-114.69h312.528c24.918,0,45.189-20.271,45.189-45.189S491.729,210.812,466.811,210.812z M466.811,280.791H129.66
			c-4.126,0-7.844,2.485-9.423,6.296c-1.579,3.811-0.706,8.198,2.211,11.115L254.55,430.303c9.667,9.666,9.667,25.393,0,35.059
			c-4.682,4.682-10.907,7.261-17.529,7.261c-6.621,0-12.847-2.578-17.529-7.261L27.659,273.53
			c-4.682-4.682-7.261-10.908-7.261-17.529s2.578-12.847,7.261-17.529L219.491,46.639c4.682-4.682,10.908-7.261,17.529-7.261
			c6.622,0,12.847,2.578,17.529,7.261c9.667,9.666,9.667,25.393,0,35.059L122.449,213.799c-2.917,2.917-3.79,7.305-2.211,11.115
			c1.579,3.81,5.299,6.296,9.423,6.296h337.151c13.67,0,24.79,11.121,24.79,24.79C491.602,269.67,480.481,280.791,466.811,280.791z"
			/>
	</g>
</g>
<g>
	<g>
		<path d="M152.042,140.166c-3.984-3.983-10.442-3.983-14.425,0l-3.06,3.06c-3.983,3.984-3.983,10.442,0,14.425
			c1.991,1.992,4.602,2.987,7.212,2.987s5.221-0.995,7.213-2.987l3.06-3.06C156.024,150.607,156.024,144.149,152.042,140.166z"/>
	</g>
</g>
<g>
	<g>
		<path d="M126.034,166.174c-3.984-3.983-10.442-3.983-14.425,0l-80.574,80.574c-3.983,3.984-3.983,10.442,0,14.425
			c1.991,1.992,4.602,2.987,7.212,2.987s5.221-0.995,7.213-2.987l80.574-80.574C130.016,176.615,130.017,170.157,126.034,166.174z"
			/>
	</g>
</g>
<g>
</g>
<g>
</g>
<g>
</g>
<g>
</g>
<g>
</g>
<g>
</g>
<g>
</g>
<g>
</g>
<g>
</g>
<g>
</g>
<g>
</g>
<g>
</g>
<g>
</g>
<g>
</g>
<g>
</g>
</svg>
