<?xml version="1.0" encoding="iso-8859-1"?>
<!-- Generator: Adobe Illustrator 19.0.0, SVG Export Plug-In . SVG Version: 6.00 Build 0)  -->
<svg version="1.1" id="Layer_1" xmlns="http://www.w3.org/2000/svg" xmlns:xlink="http://www.w3.org/1999/xlink" x="0px" y="0px"
	 viewBox="0 0 512 512" style="enable-background:new 0 0 512 512;" xml:space="preserve">
<g>
	<g>
		<path d="M498.766,224.046L306.933,32.215c-8.535-8.536-19.882-13.235-31.953-13.235c-12.07,0-23.418,4.701-31.953,13.235
			c-17.618,17.619-17.618,46.288,0,63.907l114.69,114.69H45.189C20.271,210.812,0,231.083,0,256.001s20.271,45.189,45.189,45.188
			h312.527l-114.69,114.69c-17.618,17.619-17.618,46.288,0,63.907c8.535,8.536,19.883,13.236,31.953,13.236
			c12.071,0,23.418-4.7,31.954-13.234l191.832-191.833C507.3,279.418,512,268.07,512,256.001
			C512,243.931,507.3,232.583,498.766,224.046z M484.342,273.529L292.509,465.362c-4.682,4.682-10.907,7.261-17.529,7.261
			c-6.622,0-12.847-2.578-17.529-7.261c-9.667-9.666-9.667-25.393,0-35.059l132.101-132.101c2.916-2.917,3.789-7.304,2.21-11.115
			c-1.578-3.81-5.296-6.296-9.422-6.296H45.189c-13.67,0-24.79-11.121-24.79-24.79c0-13.669,11.12-24.79,24.79-24.79h337.15
			c4.126,0,7.844-2.485,9.422-6.296c1.579-3.811,0.706-8.198-2.21-11.115L257.449,81.698c-9.667-9.666-9.667-25.393,0-35.059
			c4.682-4.682,10.907-7.261,17.529-7.261c6.622,0,12.847,2.578,17.529,7.261l191.833,191.832
			c4.682,4.682,7.261,10.908,7.261,17.529C491.602,262.622,489.023,268.847,484.342,273.529z"/>
	</g>
</g>
<g>
	<g>
		<path d="M377.444,143.226l-3.06-3.06c-3.985-3.983-10.441-3.983-14.425,0c-3.983,3.984-3.983,10.442,0,14.425l3.06,3.06
			c1.992,1.992,4.601,2.987,7.212,2.987c2.611,0,5.22-0.995,7.213-2.987C381.427,153.667,381.427,147.209,377.444,143.226z"/>
	</g>
</g>
<g>
	<g>
		<path d="M480.966,246.748l-80.574-80.574c-3.985-3.983-10.441-3.983-14.425,0c-3.983,3.984-3.983,10.442,0,14.425l80.574,80.574
			c1.992,1.992,4.601,2.987,7.212,2.987c2.611,0,5.22-0.995,7.213-2.987C484.949,257.189,484.949,250.731,480.966,246.748z"/>
	</g>
</g>
<g>
</g>
<g>
</g>
<g>
</g>
<g>
</g>
<g>
</g>
<g>
</g>
<g>
</g>
<g>
</g>
<g>
</g>
<g>
</g>
<g>
</g>
<g>
</g>
<g>
</g>
<g>
</g>
<g>
</g>
</svg>
