<svg width="1437" height="100" viewBox="0 0 1437 100" fill="none" xmlns="http://www.w3.org/2000/svg">
<path d="M0 91L110 -11V110L292.5 -26L410 126.5L425 -26L540.5 126.5L799 -26L864.5 110L898 -26L954 110L1160.5 -26L1237 110L1436 26" stroke="#907AD6" stroke-width="3"/>
<path d="M220.5 123.5L179.5 -25.5H557.5L537 123.5H729L790.5 -25.5H982.5V123.5L1330.5 -25.5L1362.5 123.5" stroke="#2C2A4A" stroke-width="2"/>
<path d="M71 120.5L187.5 -24L326 120.5L640 -24L701.5 120.5L958.5 -24L1147.5 120.5L1396 -24" stroke="white" stroke-width="2"/>
</svg>
